<svg width="32" height="30" viewBox="0 0 32 30" fill="none" xmlns="http://www.w3.org/2000/svg">
    <path d="M16.9588 0.364984C17.8545 -0.453206 19.2795 0.193656 19.2795 1.4185V27.758C19.2795 28.9828 17.8545 29.6297 16.9588 28.8115L10.4348 22.8523C9.74183 22.2193 8.84341 21.8691 7.91216 21.8691H4.17391C1.86872 21.8691 0 19.9676 0 17.6219V11.5545C0 9.20887 1.86872 7.30734 4.17391 7.30734H7.91216C8.84341 7.30734 9.74183 6.9572 10.4348 6.3242L16.9588 0.364984ZM25.9081 1.96447C26.2833 1.5568 26.9122 1.53577 27.3128 1.9175L27.3213 1.92564C27.0449 1.64442 27.3135 1.91818 27.3135 1.91818L27.3143 1.91895L27.3162 1.92079L27.3213 1.92564L27.336 1.93999C27.3479 1.95164 27.3638 1.96742 27.3834 1.98734C27.4228 2.02716 27.4772 2.08351 27.5446 2.15627C27.6794 2.30175 27.8661 2.51308 28.0872 2.78922C28.5292 3.34116 29.1105 4.15433 29.6896 5.22038C30.8491 7.35487 32 10.505 32 14.5882C32 18.6715 30.8491 21.8216 29.6896 23.9561C29.1105 25.0221 28.5292 25.8353 28.0872 26.3873C27.8661 26.6634 27.6794 26.8747 27.5446 27.0202C27.4772 27.093 27.4228 27.1493 27.3834 27.1891C27.3638 27.209 27.3479 27.2248 27.336 27.2365L27.3213 27.2508L27.3162 27.2557L27.3143 27.2575L27.3135 27.2583C27.3135 27.2583 27.8395 26.7231 27.3128 27.259C26.9122 27.6407 26.2833 27.6197 25.9081 27.212C25.5336 26.805 25.5536 26.1666 25.9522 25.7846L25.9537 25.7832L25.9562 25.7808C25.9609 25.7762 25.9695 25.7676 25.9819 25.7551C26.0066 25.7301 26.046 25.6894 26.0982 25.6331C26.2026 25.5204 26.3575 25.3455 26.5464 25.1097C26.9243 24.6378 27.4361 23.924 27.9501 22.9777C28.9769 21.0874 30.0124 18.2712 30.0124 14.5882C30.0124 10.9052 28.9769 8.08903 27.9501 6.1988C27.4361 5.25248 26.9243 4.53869 26.5464 4.06676C26.3575 3.83095 26.2026 3.65611 26.0982 3.54341C26.046 3.48708 26.0066 3.44634 25.9819 3.42134C25.9695 3.40884 25.9609 3.40029 25.9562 3.39569L25.9537 3.39322L25.9522 3.39183C25.5536 3.00987 25.5336 2.37144 25.9081 1.96447ZM22.7252 6.82149C23.0986 6.41223 23.7274 6.38853 24.1296 6.76856L24.1806 6.8183C24.1002 6.74179 24.1303 6.76916 24.1303 6.76916L24.131 6.76982L24.1326 6.77132L24.1365 6.77508L24.1473 6.78555C24.1559 6.79385 24.167 6.80477 24.1806 6.8183C24.2077 6.84536 24.2445 6.88287 24.2896 6.93064C24.3798 7.02612 24.5034 7.16292 24.6491 7.3395C24.9403 7.69215 25.3224 8.20668 25.7031 8.87084C26.4645 10.1989 27.2298 12.1432 27.2298 14.5882C27.2298 17.0333 26.4645 18.9776 25.7031 20.3056C25.3224 20.9698 24.9403 21.4843 24.6491 21.837C24.5034 22.0135 24.3798 22.1503 24.2896 22.2458C24.2445 22.2936 24.2077 22.3311 24.1806 22.3582C24.175 22.3637 24.1698 22.3689 24.1651 22.3736C24.1583 22.3802 24.1524 22.386 24.1473 22.3909L24.1365 22.4014L24.1326 22.4051L24.1303 22.4073C24.1303 22.4073 24.4472 22.0852 24.1365 22.4014L24.1296 22.4079C23.7274 22.7879 23.0986 22.7642 22.7252 22.355C22.3525 21.9466 22.3749 21.3087 22.7746 20.9283L22.7759 20.9271L22.7887 20.9144C22.8024 20.9007 22.8254 20.8774 22.8564 20.8446C22.9184 20.7789 23.0122 20.6756 23.1273 20.5361C23.3579 20.2568 23.6714 19.8359 23.9863 19.2866C24.6163 18.1877 25.2422 16.5926 25.2422 14.5882C25.2422 12.5839 24.6163 10.9888 23.9863 9.8899C23.6714 9.34058 23.3579 8.91971 23.1273 8.64034C23.0121 8.50091 22.9184 8.39754 22.8564 8.33186C22.8254 8.29904 22.8024 8.27572 22.7887 8.26209L22.7754 8.24897L22.7761 8.24959C22.3745 7.8695 22.3519 7.23055 22.7252 6.82149Z" fill="white"/>
</svg>
