<svg width="34" height="34" viewBox="0 0 34 34" fill="none" xmlns="http://www.w3.org/2000/svg">
    <path d="M17 1C25.8366 1 33 8.16344 33 17C33 25.8366 25.8366 33 17 33C8.16344 33 1 25.8366 1 17C1 8.16344 8.16344 1 17 1ZM17 3.39963C9.48872 3.39963 3.39963 9.48872 3.39963 17C3.39963 24.5113 9.48872 30.6004 17 30.6004C24.5113 30.6004 30.6004 24.5113 30.6004 17C30.6004 9.48872 24.5113 3.39963 17 3.39963ZM16.9942 14.5988C17.6016 14.5984 18.1039 15.0495 18.1837 15.6351L18.1948 15.7979L18.2005 24.599C18.201 25.2617 17.6641 25.7992 17.0015 25.7996C16.3941 25.8 15.8918 25.349 15.812 24.7634L15.8009 24.6006L15.7951 15.7994C15.7947 15.1368 16.3315 14.5993 16.9942 14.5988ZM17.0007 9.00327C17.8831 9.00327 18.5983 9.71854 18.5983 10.6009C18.5983 11.4832 17.8831 12.1985 17.0007 12.1985C16.1184 12.1985 15.4031 11.4832 15.4031 10.6009C15.4031 9.71854 16.1184 9.00327 17.0007 9.00327Z" fill="white" stroke="white"/>
</svg>
